<svg width="76" height="32" viewBox="0 0 76 32" fill="none" xmlns="http://www.w3.org/2000/svg">
<path d="M35.2065 25.2435V6.41797H41.8232C44.7131 6.41797 47.0186 7.26171 48.6744 8.92303C50.2927 10.5843 51.1149 12.9079 51.1149 15.8299C51.1149 18.752 50.2927 21.0755 48.6727 22.7385C47.0186 24.3998 44.7148 25.2419 41.8249 25.2419H35.2082L35.2065 25.2435ZM37.608 23.1832H41.7956C43.9642 23.1832 45.6558 22.5357 46.8232 21.2586C47.9857 19.9881 48.5751 18.1617 48.5751 15.8299C48.5751 13.4982 47.9857 11.6734 46.8232 10.4012C45.6542 9.12415 43.9626 8.47663 41.7956 8.47663H37.608V23.1816V23.1832Z" fill="white"/>
<path d="M59.332 25.2566V11.7486H61.5446V25.2566H59.332ZM59.3043 9.27786V6.866H61.5707V9.27786H59.3043Z" fill="white"/>
<path d="M67.432 25.582C65.9667 25.582 64.796 25.2304 63.9543 24.5388C63.1142 23.8487 62.7072 22.9134 62.7072 21.6772C62.7072 19.2703 64.3499 17.9311 67.7283 17.5812L69.7813 17.3637C70.5612 17.2656 71.1197 17.0661 71.4925 16.7522C71.8816 16.4251 72.0803 15.9558 72.0803 15.3574C72.0803 14.5725 71.823 13.9887 71.3167 13.6257C70.8282 13.2758 70.0614 13.1058 68.9738 13.1058C67.7918 13.1058 66.9566 13.3036 66.4225 13.7124C65.9211 14.095 65.615 14.7393 65.5108 15.6288H63.3226C63.6026 12.8016 65.4538 11.4264 68.9738 11.4264C72.4938 11.4264 74.2391 12.6953 74.2391 15.305V22.7107C74.2391 23.314 74.6038 23.6607 75.2404 23.6607H75.7533V25.2877C75.4244 25.3236 75.0613 25.3416 74.6739 25.3416C73.8663 25.3416 73.2655 25.1977 72.8878 24.9149C72.5166 24.6369 72.2952 24.1987 72.2138 23.574L72.1258 22.9036L71.7644 23.4743C70.8673 24.8952 69.4508 25.5853 67.432 25.5853V25.582ZM71.6781 18.3137C71.3753 18.5704 70.8364 18.7421 70.0793 18.8272L68.1337 19.0446C67.0298 19.1787 66.2548 19.4403 65.7648 19.8442C65.2568 20.2628 64.9996 20.8499 64.9996 21.5938C64.9996 22.3378 65.2519 22.9249 65.7485 23.3418C66.232 23.749 66.9354 23.955 67.8357 23.955C69.0422 23.955 70.0598 23.6067 70.8575 22.92C71.6667 22.2234 72.077 21.2292 72.077 19.9669V17.9752L71.6749 18.3154L71.6781 18.3137Z" fill="white"/>
<path d="M53.251 25.2566C53.1061 25.2566 52.9629 25.2566 52.8261 25.2533H52.2595V23.1064C52.2595 22.4556 52.2595 18.9155 52.266 17.8019C52.266 17.591 52.2774 17.385 52.2937 17.1887C52.3751 16.2289 52.621 15.3099 53.0068 14.53C53.3504 13.8301 53.7965 13.2562 54.3321 12.8212C54.6887 12.5302 55.1071 12.2931 55.5744 12.1132L55.6021 12.1018L55.6183 12.0969L55.6314 12.0903C55.6314 12.0903 55.747 12.0478 55.76 12.0429L55.8235 12.0233C56.1296 11.9219 56.4503 11.8451 56.7824 11.7927C56.789 11.7927 56.9436 11.7698 56.9436 11.7698C56.9469 11.7698 56.9941 11.7666 57.0641 11.76C57.0836 11.76 57.1048 11.7568 57.126 11.7551C57.1618 11.7551 57.1895 11.7518 57.2204 11.7502L57.2806 11.7453C57.3572 11.7404 57.5558 11.729 57.5558 11.729C57.6861 11.7241 57.7984 11.7208 57.8961 11.7208C57.9677 11.7208 58.0296 11.7208 58.0833 11.724V13.9822L58.0345 13.9855C57.831 14.0002 57.6209 14.0149 57.4125 14.0541C56.3494 14.2471 55.1967 14.6428 54.7245 16.1095C54.4559 16.9451 54.4721 17.8248 54.4868 18.6735C54.49 18.8762 54.4949 19.0773 54.4933 19.2752C54.4933 19.6791 54.4933 22.6992 54.4933 23.1031L54.4982 24.8266V25.1781H54.4933V25.2484H53.6809C53.536 25.2517 53.3911 25.2517 53.2462 25.2517L53.251 25.2566Z" fill="white"/>
<path d="M26.5221 26.7332L23.1926 30.1686L23.2317 30.2079C24.6075 29.3445 25.7748 28.2588 26.9178 27.124C28.0314 25.9597 29.0929 24.771 29.9298 23.3746L29.8907 23.3353L26.5205 26.7332H26.5221Z" fill="white"/>
<path d="M12.9518 7.01318L19.5831 0.5674L19.3845 0.372816L19.1842 0.176598L12.9518 7.00337V7.01318Z" fill="white"/>
<path d="M17.6277 7.10148L17.6212 7.1211L23.1682 1.83791L22.9696 1.64006L22.771 1.44548L17.6342 7.08186L17.6277 7.10148Z" fill="white"/>
<path d="M21.1917 8.33112V8.33275L21.1721 8.37036L26.0988 3.72652L25.9002 3.52867L25.7016 3.33245L21.2112 8.2837L21.1917 8.33112Z" fill="white"/>
<path d="M23.6696 10.6694L23.6436 10.725L28.046 6.59132L27.8474 6.39346L27.6487 6.19724L23.7022 10.5974L23.6696 10.6694Z" fill="white"/>
<path d="M24.8809 14.3125L24.8728 14.3338L30.371 9.08166L29.9737 8.69085L24.8875 14.2864L24.8809 14.3125Z" fill="white"/>
<path d="M10.4282 10.5075C10.9101 10.0284 12.0416 8.8789 12.5138 8.42432C12.5985 8.03516 12.662 7.60021 12.6766 7.19469C12.2745 7.2094 11.8414 7.27317 11.4539 7.3582C10.9948 7.84221 9.86322 8.96556 9.37641 9.45284C8.92542 9.90741 7.732 11.106 7.29567 11.5442C7.22566 11.935 7.14751 12.3242 7.12634 12.7673C7.56756 12.746 7.95343 12.6708 8.34581 12.5972C8.7854 12.1558 9.9723 10.9637 10.4265 10.5075H10.4282Z" fill="white"/>
<path d="M8.74142 16.9778L10.0325 15.6811L15.1986 10.4928C15.6333 10.0628 16.0549 9.62289 16.4962 9.20102C16.7762 8.61727 17.0416 8.01881 17.2565 7.37128C16.6101 7.58713 16.0142 7.85366 15.4346 8.1349C15.0178 8.57803 14.5766 9.00317 14.15 9.43812C12.8622 10.7299 10.2702 13.3347 8.98238 14.6265L7.69128 15.9232C7.41613 16.5069 7.13935 17.1348 6.92444 17.748C7.53498 17.5338 8.16018 17.2558 8.74142 16.9778Z" fill="white"/>
<path d="M9.11754 21.4353C10.223 20.3217 13.1667 17.3654 14.3129 16.2158C15.5063 15.0254 18.3539 12.1427 19.5131 11.0046C19.9397 10.2753 20.3516 9.52805 20.7147 8.73173C19.9218 9.09474 19.1793 9.50843 18.4516 9.94011C17.2972 11.1223 14.4627 13.9528 13.2627 15.1628C12.1279 16.2992 9.16313 19.2801 8.0674 20.3806C7.64734 21.1082 7.21915 21.8833 6.86096 22.6469C7.61967 22.2855 8.39465 21.8571 9.11754 21.4353Z" fill="white"/>
<path d="M16.7322 18.6081C17.9354 17.4062 20.8058 14.5006 21.9781 13.3494C22.4111 12.6169 22.8263 11.8631 23.1943 11.0635C22.3965 11.433 21.6475 11.85 20.9165 12.2849C19.7508 13.4786 16.8934 16.3336 15.6821 17.5534C14.5392 18.7013 11.5467 21.7067 10.4428 22.8153C10.0179 23.5479 9.58479 24.3295 9.22009 25.0964C9.98531 24.7317 10.7636 24.2968 11.4913 23.87C12.6082 22.7483 15.5763 19.7674 16.7322 18.6081Z" fill="white"/>
<path d="M22.6944 15.2854C22.2711 15.7351 21.8283 16.1635 21.3936 16.605C20.0927 17.9115 17.4698 20.5474 16.1673 21.8539L14.8599 23.1669C14.5782 23.7555 14.2982 24.3883 14.0768 25.0064C14.6922 24.7857 15.3239 24.5028 15.9084 24.2216L17.2174 22.9085C18.5199 21.6004 21.1412 18.9662 22.4437 17.658C22.8817 17.2231 23.3082 16.7783 23.756 16.3516C24.0425 15.7645 24.3128 15.1612 24.5342 14.5055C23.883 14.7278 23.2822 14.9976 22.6944 15.2854Z" fill="white"/>
<path d="M23.8765 20.1991C23.8732 20.1549 23.8667 20.1075 23.8618 20.0617C23.4695 20.0159 23.1422 20.0356 22.8117 20.0519C22.6489 20.2367 22.4682 20.4018 22.2956 20.5801C21.7778 21.1017 20.7326 22.1515 20.2132 22.6731L19.6922 23.1947C19.6792 23.5299 19.6613 23.8602 19.6971 24.2461C20.0797 24.2821 20.4086 24.2624 20.7423 24.2494L21.2633 23.7261C21.7811 23.2061 22.8263 22.1547 23.3457 21.6347C23.5216 21.4631 23.6876 21.2799 23.8716 21.1164C23.8863 20.8401 23.9025 20.5654 23.8814 20.2514C23.8814 20.2432 23.8797 20.2351 23.8797 20.2252C23.8797 20.2171 23.8781 20.2089 23.8781 20.1991H23.8765Z" fill="white"/>
<path d="M24.1223 19.9767L24.1256 20.011L31.6296 12.6904L31.2323 12.2996L24.1174 19.9424L24.1223 19.9767Z" fill="white"/>
<path d="M7.04981 13.0355L7.04492 13.0404H7.04655L7.04981 13.0355Z" fill="white"/>
<path d="M0.226318 19.4011L0.420065 19.599L0.617068 19.7985L7.04489 13.0404L0.226318 19.4011Z" fill="white"/>
<path d="M6.85437 18.057L6.83157 18.0652L1.48645 22.9053L1.67857 23.1064L1.87394 23.3075L6.87716 18.0489L6.85437 18.057Z" fill="white"/>
<path d="M6.37417 23.0508L6.40348 22.9854L3.33936 25.8207L3.54124 26.0153L3.7415 26.2083L6.33022 23.144L6.37417 23.0508Z" fill="white"/>
<path d="M8.77236 25.6098H8.77074L8.66491 25.6621L5.7522 28.2261L5.9492 28.4255L6.1462 28.6218L8.84726 25.5738L8.77236 25.6098Z" fill="white"/>
<path d="M13.6421 25.4479L13.6372 25.4496L13.6503 25.4169L8.70239 30.1147L8.90102 30.3109L9.09965 30.5071L13.6796 25.4348L13.6421 25.4479Z" fill="white"/>
<path d="M19.5066 24.4979L19.4984 24.4946L12.3168 31.3819L12.5138 31.5765V31.5781L12.7124 31.7744L19.5114 24.4979H19.5066Z" fill="white"/>
<path d="M15.0292 0.0392437L14.9901 0C12.2256 2.26306 9.67756 4.74522 7.15885 7.2699C4.70202 9.79458 2.18494 12.4484 0 15.2086C3.76422 11.6587 11.2975 3.78375 15.0292 0.0392437Z" fill="white"/>
<path d="M31.6572 16.8715C27.9125 20.4018 20.4199 28.2375 16.7078 31.9608L16.7468 32C19.4967 29.7517 22.0317 27.2809 24.5374 24.7693C26.9812 22.2594 29.4836 19.6186 31.6556 16.8715H31.6572Z" fill="white"/>
<path d="M5.14167 5.30935L8.47118 1.87389L8.4321 1.83464C7.05634 2.69801 5.88898 3.78375 4.74603 4.91855C3.6324 6.08278 2.57086 7.27154 1.73401 8.66796L1.77308 8.7072L5.1433 5.30935H5.14167Z" fill="white"/>
</svg>
